<svg width="349" height="58" viewBox="0 0 349 58" fill="none" xmlns="http://www.w3.org/2000/svg">
<path d="M179.344 23.4664C178.194 25.0379 177.438 26.8329 177.078 28.8531C176.523 31.9678 177.099 34.5711 178.806 36.6617C180.512 38.7096 182.944 39.734 186.102 39.734C187.633 39.734 189.079 39.4905 190.439 39.0084L191.653 33.7467L208.784 48.0084L186.277 57.0592L187.397 52.1998C186.66 52.2509 185.908 52.278 185.142 52.278C180.321 52.2779 176.161 51.083 172.662 48.694C169.291 46.3047 166.902 43.2962 165.494 39.6696C164.129 36.0429 163.766 32.1815 164.406 28.0856C165.183 23.3959 167.049 19.2086 170.008 15.524L179.344 23.4664ZM54.375 34.8698C53.8204 38.1976 55.3352 39.8619 58.9189 39.8619C62.5883 39.8619 64.7002 38.1977 65.2549 34.8698L70.2471 6.45371H83.0469L77.7988 36.278C76.9028 41.3123 74.5993 45.2374 70.8877 48.0533C67.261 50.8693 62.8014 52.278 57.5107 52.278C51.9645 52.2779 47.6767 50.7631 44.6475 47.734C41.6182 44.7047 40.5087 40.8859 41.3193 36.278L46.5674 6.45371H59.3672L54.375 34.8698ZM108.4 27.9576L112.177 6.45371H124.977L117.104 51.2535H106.864L96.5605 29.7496L92.7842 51.2535H79.9844L87.8564 6.45371H98.097L108.4 27.9576ZM247.115 18.8698H236.556L230.859 51.2535H218.06L223.755 18.8698H213.195L215.371 6.45371H249.291L247.115 18.8698ZM279.765 51.2535H266.389L265.877 45.4938H252.949L250.389 51.2535H236.245L258.389 6.45371H273.365L279.765 51.2535ZM314.229 18.8698H303.669L297.973 51.2535H285.173L290.868 18.8698H280.309L282.484 6.45371H316.404L314.229 18.8698ZM346.329 18.1022H330.009L329.177 22.9655H343.896L341.849 34.486H327.129L326.232 39.4781H342.873L340.825 51.2535H311.385L319.257 6.45371H348.377L346.329 18.1022ZM26.4785 6.38931C31.129 6.38941 34.8618 7.94761 37.6777 11.0621C40.4937 14.1341 41.4754 18.0381 40.6221 22.774C39.6407 28.2778 36.6539 32.288 31.6621 34.8053L37.4219 51.1901H24.6221L20.0137 37.11H15.918L13.4219 51.1901H0.62207L8.5576 6.38931H26.4785ZM148.366 6.38931C153.017 6.38941 156.75 7.94761 159.565 11.0621C162.381 14.1341 163.363 18.0381 162.51 22.774C161.528 28.2778 158.542 32.288 153.55 34.8053L159.31 51.1901H146.51L141.901 37.11H137.806L135.31 51.1901H122.51L130.445 6.38931H148.366ZM193.321 5.52211C196.033 5.74981 198.534 6.40071 200.821 7.47721C203.765 8.79981 206.091 10.6346 207.798 12.9811C211.339 17.8024 212.619 23.2646 211.638 29.3658C211.064 33.0104 209.838 36.3621 207.964 39.4225L198.275 31.3492C198.578 30.5572 198.81 29.7256 198.966 28.8531C199.52 25.7388 198.944 23.1578 197.237 21.11C195.623 19.1324 193.36 18.0911 190.447 17.984L189.187 23.4547L172.056 9.19301L194.562 0.142212L193.321 5.52211ZM257.493 35.2535H264.917L263.637 21.4938L257.493 35.2535ZM17.7744 26.486H23.0225C24.2596 26.5285 25.305 26.1868 26.1582 25.4615C27.0541 24.7362 27.6089 23.7119 27.8223 22.3893C28.0221 21.1496 27.8467 20.1725 27.2969 19.4576L27.0664 19.1783C26.4664 18.5032 25.5663 18.1657 24.3662 18.1656H19.2461L17.7744 26.486ZM139.662 26.486H144.91C146.147 26.5285 147.193 26.1868 148.046 25.4615C148.942 24.7362 149.497 23.7119 149.71 22.3893C149.91 21.1496 149.734 20.1725 149.185 19.4576L148.954 19.1783C148.354 18.5032 147.454 18.1657 146.254 18.1656H141.134L139.662 26.486Z" fill="black"/>
<path d="M177.078 28.8531C177.438 26.8329 178.194 25.0379 179.344 23.4664L170.008 15.524C167.049 19.2086 165.183 23.3959 164.406 28.0856C163.766 32.1815 164.129 36.0429 165.494 39.6696C166.902 43.2962 169.291 46.3047 172.662 48.694C176.161 51.083 180.321 52.2779 185.142 52.278C185.908 52.278 186.66 52.2509 187.397 52.1998L186.277 57.0592L208.784 48.0084L191.653 33.7467L190.439 39.0084C189.079 39.4905 187.633 39.734 186.102 39.734C182.944 39.734 180.512 38.7096 178.806 36.6617C177.099 34.5711 176.523 31.9678 177.078 28.8531Z" fill="#39FFA8"/>
<path d="M200.821 7.47721C198.534 6.40071 196.033 5.74981 193.321 5.52211L194.562 0.142212L172.056 9.19301L189.187 23.4547L190.447 17.984C193.36 18.0911 195.623 19.1324 197.237 21.11C198.944 23.1578 199.52 25.7388 198.966 28.8531C198.81 29.7256 198.578 30.5572 198.275 31.3492L207.964 39.4225C209.838 36.3621 211.064 33.0104 211.638 29.3658C212.619 23.2646 211.339 17.8024 207.798 12.9811C206.091 10.6346 203.765 8.79981 200.821 7.47721Z" fill="#39FFA8"/>
</svg>
