<svg width="355" height="81" viewBox="0 0 355 81" fill="none" xmlns="http://www.w3.org/2000/svg">
  <!-- All other text changed to white -->
  <path d="M182.344 35.4664C181.194 37.0379 180.438 38.8329 180.078 40.8531C179.523 43.9678 180.099 46.5711 181.806 48.6617C183.512 50.7096 185.944 51.734 189.102 51.734C190.633 51.734 192.079 51.4905 193.439 51.0084L194.653 45.7467L211.784 60.0084L189.277 69.0592L190.397 64.1998C189.66 64.2509 188.908 64.278 188.142 64.278C183.321 64.2779 179.161 63.083 175.662 60.694C172.291 58.3047 169.902 55.2962 168.494 51.6696C167.129 48.0429 166.766 44.1815 167.406 40.0856C168.183 35.3959 170.049 31.2086 173.008 27.524L182.344 35.4664Z" fill="#FFFFFF"/>
  <!-- Rest of the main logo letters -->
  <path d="M57.375 46.8698C56.8204 50.1976 58.3352 51.8619 61.9189 51.8619C65.5883 51.8619 67.7002 50.1977 68.2549 46.8698L73.2471 18.4537H86.0469L80.7988 48.278C79.9028 53.3123 77.5993 57.2374 73.8877 60.0533C70.261 62.8693 65.8014 64.278 60.5107 64.278C54.9645 64.2779 50.6767 62.7631 47.6475 59.734C44.6182 56.7047 43.5087 52.8859 44.3193 48.278L49.5674 18.4537H62.3672L57.375 46.8698Z" fill="#FFFFFF"/>
  <path d="M111.4 39.9576L115.177 18.4537H127.977L120.104 63.2535H109.864L99.5605 41.7496L95.7842 63.2535H82.9844L90.8564 18.4537H101.097L111.4 39.9576Z" fill="#FFFFFF"/>
  <path d="M250.115 30.8698H239.556L233.859 63.2535H221.06L226.755 30.8698H216.195L218.371 18.4537H252.291L250.115 30.8698Z" fill="#FFFFFF"/>
  <path d="M282.765 63.2535H269.389L268.877 57.4938H255.949L253.389 63.2535H239.245L261.389 18.4537H276.365L282.765 63.2535Z" fill="#FFFFFF"/>
  <path d="M317.229 30.8698H306.669L300.973 63.2535H288.173L293.868 30.8698H283.309L285.484 18.4537H319.404L317.229 30.8698Z" fill="#FFFFFF"/>
  <path d="M349.329 30.1022H333.009L332.177 34.9655H346.896L344.849 46.486H330.129L329.232 51.4781H345.873L343.825 63.2535H314.385L322.257 18.4537H351.377L349.329 30.1022Z" fill="#FFFFFF"/>
  <path d="M29.4785 18.3893C34.129 18.3894 37.8618 19.9476 40.6777 23.0621C43.4937 26.1341 44.4754 30.0381 43.6221 34.774C42.6407 40.2778 39.6539 44.288 34.6621 46.8053L40.4219 63.1901H27.6221L23.0137 49.11H18.918L16.4219 63.1901H3.62207L11.5576 18.3893H29.4785Z" fill="#FFFFFF"/>
  <path d="M151.366 18.3893C156.017 18.3894 159.75 19.9476 162.565 23.0621C165.381 26.1341 166.363 30.0381 165.51 34.774C164.528 40.2778 161.542 44.288 156.55 46.8053L162.31 63.1901H149.51L144.901 49.11H140.806L138.31 63.1901H125.51L133.445 18.3893H151.366Z" fill="#FFFFFF"/>
  <path d="M260.493 47.2535H267.917L266.637 33.4938L260.493 47.2535Z" fill="#FFFFFF"/>
  <path d="M20.7744 38.486H26.0225C27.2596 38.5285 28.305 38.1868 29.1582 37.4615C30.0541 36.7362 30.6089 35.7119 30.8223 34.3893C31.0221 33.1496 30.8467 32.1725 30.2969 31.4576L30.0664 31.1783C29.4664 30.5032 28.5663 30.1657 27.3662 30.1656H22.2461L20.7744 38.486Z" fill="#FFFFFF"/>
  <path d="M142.662 38.486H147.91C149.147 38.5285 150.193 38.1868 151.046 37.4615C151.942 36.7362 152.497 35.7119 152.71 34.3893C152.91 33.1496 152.734 32.1725 152.185 31.4576L151.954 31.1783C151.354 30.5032 150.454 30.1657 149.254 30.1656H144.134L142.662 38.486Z" fill="#FFFFFF"/>

  <!-- Arrows ("O") stay green -->
  <path d="M180.078 40.8531C180.438 38.8329 181.194 37.0379 182.344 35.4664L173.008 27.524C170.049 31.2086 168.183 35.3959 167.406 40.0856C166.766 44.1815 167.129 48.0429 168.494 51.6696C169.902 55.2962 172.291 58.3047 175.662 60.694C179.161 63.083 183.321 64.2779 188.142 64.278C188.908 64.278 189.66 64.2509 190.397 64.1998L189.277 69.0592L211.784 60.0084L194.653 45.7467L193.439 51.0084C192.079 51.4905 190.633 51.734 189.102 51.734C185.944 51.734 183.512 50.7096 181.806 48.6617C180.099 46.5711 179.523 43.9678 180.078 40.8531Z" fill="#39FFA8"/>
  <path d="M203.821 19.4772C201.534 18.4007 199.033 17.7498 196.321 17.5221L197.562 12.1422L175.056 21.193L192.187 35.4547L193.447 29.984C196.36 30.0911 198.623 31.1324 200.237 33.11C201.944 35.1578 202.52 37.7388 201.966 40.8531C201.81 41.7256 201.578 42.5572 201.275 43.3492L210.964 51.4225C212.838 48.3621 214.064 45.0104 214.638 41.3658C215.619 35.2646 214.339 29.8024 210.798 24.9811C209.091 22.6346 206.765 20.7998 203.821 19.4772Z" fill="#39FFA8"/>
</svg>